<svg width="21" height="21" viewBox="0 0 21 21" fill="none" xmlns="http://www.w3.org/2000/svg">
<path d="M0.337459 7.61814L4.48968 7.61814L4.48968 20.9698H0.337459L0.337459 7.61814ZM2.40623 0.986328C3.7414 0.986328 4.81246 2.05739 4.81246 3.39256C4.81246 4.72772 3.7414 5.79879 2.40623 5.79879C1.07107 5.79879 0 4.71305 0 3.39256C0 2.07207 1.07107 0.986328 2.40623 0.986328Z" fill="#7E7E7E"/>
<path d="M7.08694 7.61749L11.0631 7.61749V9.43683H11.1218C11.6793 8.38044 13.0292 7.28003 15.0539 7.28003C19.2501 7.28003 20.0278 10.0384 20.0278 13.6331V20.9545H15.8755V14.4694C15.8755 12.9141 15.8462 10.9334 13.7187 10.9334C11.5913 10.9334 11.2245 12.6207 11.2245 14.3667L11.2245 20.9691H7.07227L7.07227 7.61749H7.08694Z" fill="#7E7E7E"/>
</svg>
