<svg width="77" height="79" viewBox="0 0 77 79" fill="none" xmlns="http://www.w3.org/2000/svg">
<mask id="path-1-inside-1_2_1043" fill="white">
<path fill-rule="evenodd" clip-rule="evenodd" d="M38.2869 78.0625C38.2872 78.0625 38.2875 78.0625 38.2878 78.0625C59.6681 78.0625 77.0001 60.7305 77.0001 39.3502C77.0001 17.97 59.6681 0.637939 38.2878 0.637939C38.2875 0.637939 38.2872 0.637939 38.2869 0.637939V78.0625Z"/>
</mask>
<path d="M38.2869 78.0625H37.2869V79.0625H38.2869V78.0625ZM38.2869 0.637939L38.2868 -0.362061L37.2869 -0.362036V0.637939H38.2869ZM38.2878 77.0625C38.2878 77.0625 38.2878 77.0625 38.2878 77.0625C38.2878 77.0625 38.2878 77.0625 38.2878 77.0625C38.2878 77.0625 38.2878 77.0625 38.2878 77.0625C38.2878 77.0625 38.2878 77.0625 38.2878 77.0625C38.2878 77.0625 38.2878 77.0625 38.2878 77.0625C38.2878 77.0625 38.2878 77.0625 38.2878 77.0625C38.2878 77.0625 38.2878 77.0625 38.2878 77.0625C38.2878 77.0625 38.2878 77.0625 38.2878 77.0625C38.2878 77.0625 38.2878 77.0625 38.2878 77.0625C38.2878 77.0625 38.2878 77.0625 38.2878 77.0625C38.2878 77.0625 38.2878 77.0625 38.2878 77.0625C38.2878 77.0625 38.2878 77.0625 38.2878 77.0625C38.2878 77.0625 38.2878 77.0625 38.2878 77.0625C38.2878 77.0625 38.2878 77.0625 38.2878 77.0625C38.2878 77.0625 38.2878 77.0625 38.2878 77.0625C38.2878 77.0625 38.2878 77.0625 38.2878 77.0625C38.2878 77.0625 38.2878 77.0625 38.2878 77.0625C38.2878 77.0625 38.2878 77.0625 38.2878 77.0625C38.2878 77.0625 38.2878 77.0625 38.2878 77.0625C38.2878 77.0625 38.2878 77.0625 38.2878 77.0625C38.2878 77.0625 38.2878 77.0625 38.2878 77.0625C38.2878 77.0625 38.2878 77.0625 38.2878 77.0625C38.2878 77.0625 38.2878 77.0625 38.2878 77.0625C38.2878 77.0625 38.2878 77.0625 38.2878 77.0625C38.2878 77.0625 38.2878 77.0625 38.2878 77.0625C38.2878 77.0625 38.2878 77.0625 38.2878 77.0625C38.2878 77.0625 38.2878 77.0625 38.2878 77.0625C38.2878 77.0625 38.2878 77.0625 38.2878 77.0625C38.2878 77.0625 38.2878 77.0625 38.2878 77.0625C38.2878 77.0625 38.2878 77.0625 38.2878 77.0625C38.2878 77.0625 38.2878 77.0625 38.2878 77.0625C38.2878 77.0625 38.2878 77.0625 38.2878 77.0625C38.2878 77.0625 38.2878 77.0625 38.2878 77.0625C38.2878 77.0625 38.2878 77.0625 38.2878 77.0625C38.2878 77.0625 38.2878 77.0625 38.2878 77.0625C38.2878 77.0625 38.2878 77.0625 38.2878 77.0625C38.2878 77.0625 38.2878 77.0625 38.2878 77.0625C38.2878 77.0625 38.2878 77.0625 38.2878 77.0625C38.2878 77.0625 38.2878 77.0625 38.2878 77.0625C38.2878 77.0625 38.2878 77.0625 38.2878 77.0625C38.2878 77.0625 38.2878 77.0625 38.2878 77.0625C38.2878 77.0625 38.2878 77.0625 38.2878 77.0625C38.2878 77.0625 38.2878 77.0625 38.2878 77.0625C38.2878 77.0625 38.2878 77.0625 38.2878 77.0625C38.2878 77.0625 38.2878 77.0625 38.2878 77.0625C38.2878 77.0625 38.2878 77.0625 38.2878 77.0625C38.2878 77.0625 38.2878 77.0625 38.2878 77.0625C38.2878 77.0625 38.2878 77.0625 38.2878 77.0625C38.2878 77.0625 38.2878 77.0625 38.2878 77.0625C38.2878 77.0625 38.2878 77.0625 38.2877 77.0625C38.2877 77.0625 38.2877 77.0625 38.2877 77.0625C38.2877 77.0625 38.2877 77.0625 38.2877 77.0625C38.2877 77.0625 38.2877 77.0625 38.2877 77.0625C38.2877 77.0625 38.2877 77.0625 38.2877 77.0625C38.2877 77.0625 38.2877 77.0625 38.2877 77.0625C38.2877 77.0625 38.2877 77.0625 38.2877 77.0625C38.2877 77.0625 38.2877 77.0625 38.2877 77.0625C38.2877 77.0625 38.2877 77.0625 38.2877 77.0625C38.2877 77.0625 38.2877 77.0625 38.2877 77.0625C38.2877 77.0625 38.2877 77.0625 38.2877 77.0625C38.2877 77.0625 38.2877 77.0625 38.2877 77.0625C38.2877 77.0625 38.2877 77.0625 38.2877 77.0625C38.2877 77.0625 38.2877 77.0625 38.2877 77.0625C38.2877 77.0625 38.2877 77.0625 38.2877 77.0625C38.2877 77.0625 38.2877 77.0625 38.2877 77.0625C38.2877 77.0625 38.2877 77.0625 38.2877 77.0625C38.2877 77.0625 38.2877 77.0625 38.2877 77.0625C38.2877 77.0625 38.2877 77.0625 38.2877 77.0625C38.2877 77.0625 38.2877 77.0625 38.2877 77.0625C38.2877 77.0625 38.2877 77.0625 38.2877 77.0625C38.2877 77.0625 38.2877 77.0625 38.2877 77.0625C38.2877 77.0625 38.2877 77.0625 38.2877 77.0625C38.2877 77.0625 38.2877 77.0625 38.2877 77.0625C38.2877 77.0625 38.2877 77.0625 38.2877 77.0625C38.2877 77.0625 38.2877 77.0625 38.2877 77.0625C38.2877 77.0625 38.2877 77.0625 38.2877 77.0625C38.2877 77.0625 38.2877 77.0625 38.2877 77.0625C38.2877 77.0625 38.2877 77.0625 38.2877 77.0625C38.2877 77.0625 38.2877 77.0625 38.2877 77.0625C38.2877 77.0625 38.2877 77.0625 38.2877 77.0625C38.2877 77.0625 38.2877 77.0625 38.2877 77.0625C38.2877 77.0625 38.2877 77.0625 38.2877 77.0625C38.2877 77.0625 38.2877 77.0625 38.2877 77.0625C38.2877 77.0625 38.2877 77.0625 38.2877 77.0625C38.2877 77.0625 38.2877 77.0625 38.2877 77.0625C38.2877 77.0625 38.2877 77.0625 38.2877 77.0625C38.2877 77.0625 38.2877 77.0625 38.2877 77.0625C38.2877 77.0625 38.2877 77.0625 38.2877 77.0625C38.2877 77.0625 38.2877 77.0625 38.2877 77.0625C38.2877 77.0625 38.2877 77.0625 38.2877 77.0625C38.2877 77.0625 38.2877 77.0625 38.2877 77.0625C38.2877 77.0625 38.2877 77.0625 38.2877 77.0625C38.2877 77.0625 38.2877 77.0625 38.2877 77.0625C38.2877 77.0625 38.2877 77.0625 38.2877 77.0625C38.2877 77.0625 38.2877 77.0625 38.2877 77.0625C38.2877 77.0625 38.2877 77.0625 38.2877 77.0625C38.2877 77.0625 38.2877 77.0625 38.2877 77.0625C38.2877 77.0625 38.2877 77.0625 38.2877 77.0625C38.2877 77.0625 38.2877 77.0625 38.2877 77.0625C38.2877 77.0625 38.2877 77.0625 38.2877 77.0625C38.2877 77.0625 38.2877 77.0625 38.2877 77.0625C38.2877 77.0625 38.2877 77.0625 38.2877 77.0625C38.2876 77.0625 38.2876 77.0625 38.2876 77.0625C38.2876 77.0625 38.2876 77.0625 38.2876 77.0625C38.2876 77.0625 38.2876 77.0625 38.2876 77.0625C38.2876 77.0625 38.2876 77.0625 38.2876 77.0625C38.2876 77.0625 38.2876 77.0625 38.2876 77.0625C38.2876 77.0625 38.2876 77.0625 38.2876 77.0625C38.2876 77.0625 38.2876 77.0625 38.2876 77.0625C38.2876 77.0625 38.2876 77.0625 38.2876 77.0625C38.2876 77.0625 38.2876 77.0625 38.2876 77.0625C38.2876 77.0625 38.2876 77.0625 38.2876 77.0625C38.2876 77.0625 38.2876 77.0625 38.2876 77.0625C38.2876 77.0625 38.2876 77.0625 38.2876 77.0625C38.2876 77.0625 38.2876 77.0625 38.2876 77.0625C38.2876 77.0625 38.2876 77.0625 38.2876 77.0625C38.2876 77.0625 38.2876 77.0625 38.2876 77.0625C38.2876 77.0625 38.2876 77.0625 38.2876 77.0625C38.2876 77.0625 38.2876 77.0625 38.2876 77.0625C38.2876 77.0625 38.2876 77.0625 38.2876 77.0625C38.2876 77.0625 38.2876 77.0625 38.2876 77.0625C38.2876 77.0625 38.2876 77.0625 38.2876 77.0625C38.2876 77.0625 38.2876 77.0625 38.2876 77.0625C38.2876 77.0625 38.2876 77.0625 38.2876 77.0625C38.2876 77.0625 38.2876 77.0625 38.2876 77.0625C38.2876 77.0625 38.2876 77.0625 38.2876 77.0625C38.2876 77.0625 38.2876 77.0625 38.2876 77.0625C38.2876 77.0625 38.2876 77.0625 38.2876 77.0625C38.2876 77.0625 38.2876 77.0625 38.2876 77.0625C38.2876 77.0625 38.2876 77.0625 38.2876 77.0625C38.2876 77.0625 38.2876 77.0625 38.2876 77.0625C38.2876 77.0625 38.2876 77.0625 38.2876 77.0625C38.2876 77.0625 38.2876 77.0625 38.2876 77.0625C38.2876 77.0625 38.2876 77.0625 38.2876 77.0625C38.2876 77.0625 38.2876 77.0625 38.2876 77.0625C38.2876 77.0625 38.2876 77.0625 38.2876 77.0625C38.2876 77.0625 38.2876 77.0625 38.2876 77.0625C38.2876 77.0625 38.2876 77.0625 38.2876 77.0625C38.2876 77.0625 38.2876 77.0625 38.2876 77.0625C38.2876 77.0625 38.2876 77.0625 38.2876 77.0625C38.2876 77.0625 38.2876 77.0625 38.2876 77.0625C38.2876 77.0625 38.2876 77.0625 38.2876 77.0625C38.2876 77.0625 38.2876 77.0625 38.2876 77.0625C38.2876 77.0625 38.2876 77.0625 38.2876 77.0625C38.2876 77.0625 38.2876 77.0625 38.2876 77.0625C38.2876 77.0625 38.2876 77.0625 38.2876 77.0625C38.2876 77.0625 38.2876 77.0625 38.2876 77.0625C38.2876 77.0625 38.2876 77.0625 38.2876 77.0625C38.2876 77.0625 38.2876 77.0625 38.2876 77.0625C38.2876 77.0625 38.2876 77.0625 38.2876 77.0625C38.2876 77.0625 38.2876 77.0625 38.2876 77.0625C38.2876 77.0625 38.2876 77.0625 38.2876 77.0625C38.2876 77.0625 38.2876 77.0625 38.2876 77.0625C38.2876 77.0625 38.2876 77.0625 38.2876 77.0625C38.2876 77.0625 38.2875 77.0625 38.2875 77.0625C38.2875 77.0625 38.2875 77.0625 38.2875 77.0625C38.2875 77.0625 38.2875 77.0625 38.2875 77.0625C38.2875 77.0625 38.2875 77.0625 38.2875 77.0625C38.2875 77.0625 38.2875 77.0625 38.2875 77.0625C38.2875 77.0625 38.2875 77.0625 38.2875 77.0625C38.2875 77.0625 38.2875 77.0625 38.2875 77.0625C38.2875 77.0625 38.2875 77.0625 38.2875 77.0625C38.2875 77.0625 38.2875 77.0625 38.2875 77.0625C38.2875 77.0625 38.2875 77.0625 38.2875 77.0625C38.2875 77.0625 38.2875 77.0625 38.2875 77.0625C38.2875 77.0625 38.2875 77.0625 38.2875 77.0625C38.2875 77.0625 38.2875 77.0625 38.2875 77.0625C38.2875 77.0625 38.2875 77.0625 38.2875 77.0625C38.2875 77.0625 38.2875 77.0625 38.2875 77.0625C38.2875 77.0625 38.2875 77.0625 38.2875 77.0625C38.2875 77.0625 38.2875 77.0625 38.2875 77.0625C38.2875 77.0625 38.2875 77.0625 38.2875 77.0625C38.2875 77.0625 38.2875 77.0625 38.2875 77.0625C38.2875 77.0625 38.2875 77.0625 38.2875 77.0625C38.2875 77.0625 38.2875 77.0625 38.2875 77.0625C38.2875 77.0625 38.2875 77.0625 38.2875 77.0625C38.2875 77.0625 38.2875 77.0625 38.2875 77.0625C38.2875 77.0625 38.2875 77.0625 38.2875 77.0625C38.2875 77.0625 38.2875 77.0625 38.2875 77.0625C38.2875 77.0625 38.2875 77.0625 38.2875 77.0625C38.2875 77.0625 38.2875 77.0625 38.2875 77.0625C38.2875 77.0625 38.2875 77.0625 38.2875 77.0625C38.2875 77.0625 38.2875 77.0625 38.2875 77.0625C38.2875 77.0625 38.2875 77.0625 38.2875 77.0625C38.2875 77.0625 38.2875 77.0625 38.2875 77.0625C38.2875 77.0625 38.2875 77.0625 38.2875 77.0625C38.2875 77.0625 38.2875 77.0625 38.2875 77.0625C38.2875 77.0625 38.2875 77.0625 38.2875 77.0625C38.2875 77.0625 38.2875 77.0625 38.2875 77.0625C38.2875 77.0625 38.2875 77.0625 38.2875 77.0625C38.2875 77.0625 38.2875 77.0625 38.2875 77.0625C38.2875 77.0625 38.2875 77.0625 38.2875 77.0625C38.2875 77.0625 38.2875 77.0625 38.2875 77.0625C38.2875 77.0625 38.2875 77.0625 38.2875 77.0625C38.2875 77.0625 38.2875 77.0625 38.2875 77.0625C38.2875 77.0625 38.2875 77.0625 38.2875 77.0625C38.2875 77.0625 38.2875 77.0625 38.2875 77.0625C38.2875 77.0625 38.2875 77.0625 38.2875 77.0625C38.2875 77.0625 38.2875 77.0625 38.2875 77.0625C38.2875 77.0625 38.2875 77.0625 38.2875 77.0625C38.2875 77.0625 38.2875 77.0625 38.2875 77.0625C38.2875 77.0625 38.2875 77.0625 38.2875 77.0625C38.2875 77.0625 38.2875 77.0625 38.2875 77.0625C38.2875 77.0625 38.2875 77.0625 38.2875 77.0625C38.2875 77.0625 38.2875 77.0625 38.2875 77.0625C38.2875 77.0625 38.2875 77.0625 38.2875 77.0625C38.2875 77.0625 38.2874 77.0625 38.2874 77.0625C38.2874 77.0625 38.2874 77.0625 38.2874 77.0625C38.2874 77.0625 38.2874 77.0625 38.2874 77.0625C38.2874 77.0625 38.2874 77.0625 38.2874 77.0625C38.2874 77.0625 38.2874 77.0625 38.2874 77.0625C38.2874 77.0625 38.2874 77.0625 38.2874 77.0625C38.2874 77.0625 38.2874 77.0625 38.2874 77.0625C38.2874 77.0625 38.2874 77.0625 38.2874 77.0625C38.2874 77.0625 38.2874 77.0625 38.2874 77.0625C38.2874 77.0625 38.2874 77.0625 38.2874 77.0625C38.2874 77.0625 38.2874 77.0625 38.2874 77.0625C38.2874 77.0625 38.2874 77.0625 38.2874 77.0625C38.2874 77.0625 38.2874 77.0625 38.2874 77.0625C38.2874 77.0625 38.2874 77.0625 38.2874 77.0625C38.2874 77.0625 38.2874 77.0625 38.2874 77.0625C38.2874 77.0625 38.2874 77.0625 38.2874 77.0625C38.2874 77.0625 38.2874 77.0625 38.2874 77.0625C38.2874 77.0625 38.2874 77.0625 38.2874 77.0625C38.2874 77.0625 38.2874 77.0625 38.2874 77.0625C38.2874 77.0625 38.2874 77.0625 38.2874 77.0625C38.2874 77.0625 38.2874 77.0625 38.2874 77.0625C38.2874 77.0625 38.2874 77.0625 38.2874 77.0625C38.2874 77.0625 38.2874 77.0625 38.2874 77.0625C38.2874 77.0625 38.2874 77.0625 38.2874 77.0625C38.2874 77.0625 38.2874 77.0625 38.2874 77.0625C38.2874 77.0625 38.2874 77.0625 38.2874 77.0625C38.2874 77.0625 38.2874 77.0625 38.2874 77.0625C38.2874 77.0625 38.2874 77.0625 38.2874 77.0625C38.2874 77.0625 38.2874 77.0625 38.2874 77.0625C38.2874 77.0625 38.2874 77.0625 38.2874 77.0625C38.2874 77.0625 38.2874 77.0625 38.2874 77.0625C38.2874 77.0625 38.2874 77.0625 38.2874 77.0625C38.2874 77.0625 38.2874 77.0625 38.2874 77.0625C38.2874 77.0625 38.2874 77.0625 38.2874 77.0625C38.2874 77.0625 38.2874 77.0625 38.2874 77.0625C38.2874 77.0625 38.2874 77.0625 38.2874 77.0625C38.2874 77.0625 38.2874 77.0625 38.2874 77.0625C38.2874 77.0625 38.2874 77.0625 38.2874 77.0625C38.2874 77.0625 38.2874 77.0625 38.2874 77.0625C38.2874 77.0625 38.2874 77.0625 38.2874 77.0625C38.2874 77.0625 38.2874 77.0625 38.2874 77.0625C38.2874 77.0625 38.2874 77.0625 38.2874 77.0625C38.2874 77.0625 38.2874 77.0625 38.2874 77.0625C38.2874 77.0625 38.2874 77.0625 38.2874 77.0625C38.2874 77.0625 38.2874 77.0625 38.2874 77.0625C38.2874 77.0625 38.2874 77.0625 38.2874 77.0625C38.2874 77.0625 38.2874 77.0625 38.2874 77.0625C38.2874 77.0625 38.2874 77.0625 38.2874 77.0625C38.2874 77.0625 38.2874 77.0625 38.2874 77.0625C38.2874 77.0625 38.2874 77.0625 38.2874 77.0625C38.2874 77.0625 38.2874 77.0625 38.2874 77.0625C38.2874 77.0625 38.2874 77.0625 38.2874 77.0625C38.2874 77.0625 38.2874 77.0625 38.2873 77.0625C38.2873 77.0625 38.2873 77.0625 38.2873 77.0625C38.2873 77.0625 38.2873 77.0625 38.2873 77.0625C38.2873 77.0625 38.2873 77.0625 38.2873 77.0625C38.2873 77.0625 38.2873 77.0625 38.2873 77.0625C38.2873 77.0625 38.2873 77.0625 38.2873 77.0625C38.2873 77.0625 38.2873 77.0625 38.2873 77.0625C38.2873 77.0625 38.2873 77.0625 38.2873 77.0625C38.2873 77.0625 38.2873 77.0625 38.2873 77.0625C38.2873 77.0625 38.2873 77.0625 38.2873 77.0625C38.2873 77.0625 38.2873 77.0625 38.2873 77.0625C38.2873 77.0625 38.2873 77.0625 38.2873 77.0625C38.2873 77.0625 38.2873 77.0625 38.2873 77.0625C38.2873 77.0625 38.2873 77.0625 38.2873 77.0625C38.2873 77.0625 38.2873 77.0625 38.2873 77.0625C38.2873 77.0625 38.2873 77.0625 38.2873 77.0625C38.2873 77.0625 38.2873 77.0625 38.2873 77.0625C38.2873 77.0625 38.2873 77.0625 38.2873 77.0625C38.2873 77.0625 38.2873 77.0625 38.2873 77.0625C38.2873 77.0625 38.2873 77.0625 38.2873 77.0625C38.2873 77.0625 38.2873 77.0625 38.2873 77.0625C38.2873 77.0625 38.2873 77.0625 38.2873 77.0625C38.2873 77.0625 38.2873 77.0625 38.2873 77.0625C38.2873 77.0625 38.2873 77.0625 38.2873 77.0625C38.2873 77.0625 38.2873 77.0625 38.2873 77.0625C38.2873 77.0625 38.2873 77.0625 38.2873 77.0625C38.2873 77.0625 38.2873 77.0625 38.2873 77.0625C38.2873 77.0625 38.2873 77.0625 38.2873 77.0625C38.2873 77.0625 38.2873 77.0625 38.2873 77.0625C38.2873 77.0625 38.2873 77.0625 38.2873 77.0625C38.2873 77.0625 38.2873 77.0625 38.2873 77.0625C38.2873 77.0625 38.2873 77.0625 38.2873 77.0625C38.2873 77.0625 38.2873 77.0625 38.2873 77.0625C38.2873 77.0625 38.2873 77.0625 38.2873 77.0625C38.2873 77.0625 38.2873 77.0625 38.2873 77.0625C38.2873 77.0625 38.2873 77.0625 38.2873 77.0625C38.2873 77.0625 38.2873 77.0625 38.2873 77.0625C38.2873 77.0625 38.2873 77.0625 38.2873 77.0625C38.2873 77.0625 38.2873 77.0625 38.2873 77.0625C38.2873 77.0625 38.2873 77.0625 38.2873 77.0625C38.2873 77.0625 38.2873 77.0625 38.2873 77.0625C38.2873 77.0625 38.2873 77.0625 38.2873 77.0625C38.2873 77.0625 38.2873 77.0625 38.2873 77.0625C38.2873 77.0625 38.2873 77.0625 38.2873 77.0625C38.2873 77.0625 38.2873 77.0625 38.2873 77.0625C38.2873 77.0625 38.2873 77.0625 38.2873 77.0625C38.2873 77.0625 38.2873 77.0625 38.2873 77.0625C38.2873 77.0625 38.2873 77.0625 38.2873 77.0625C38.2873 77.0625 38.2873 77.0625 38.2873 77.0625C38.2873 77.0625 38.2873 77.0625 38.2873 77.0625C38.2873 77.0625 38.2873 77.0625 38.2873 77.0625C38.2873 77.0625 38.2873 77.0625 38.2873 77.0625C38.2873 77.0625 38.2873 77.0625 38.2873 77.0625C38.2872 77.0625 38.2872 77.0625 38.2872 77.0625C38.2872 77.0625 38.2872 77.0625 38.2872 77.0625C38.2872 77.0625 38.2872 77.0625 38.2872 77.0625C38.2872 77.0625 38.2872 77.0625 38.2872 77.0625C38.2872 77.0625 38.2872 77.0625 38.2872 77.0625C38.2872 77.0625 38.2872 77.0625 38.2872 77.0625C38.2872 77.0625 38.2872 77.0625 38.2872 77.0625C38.2872 77.0625 38.2872 77.0625 38.2872 77.0625C38.2872 77.0625 38.2872 77.0625 38.2872 77.0625C38.2872 77.0625 38.2872 77.0625 38.2872 77.0625C38.2872 77.0625 38.2872 77.0625 38.2872 77.0625C38.2872 77.0625 38.2872 77.0625 38.2872 77.0625C38.2872 77.0625 38.2872 77.0625 38.2872 77.0625C38.2872 77.0625 38.2872 77.0625 38.2872 77.0625C38.2872 77.0625 38.2872 77.0625 38.2872 77.0625C38.2872 77.0625 38.2872 77.0625 38.2872 77.0625C38.2872 77.0625 38.2872 77.0625 38.2872 77.0625C38.2872 77.0625 38.2872 77.0625 38.2872 77.0625C38.2872 77.0625 38.2872 77.0625 38.2872 77.0625C38.2872 77.0625 38.2872 77.0625 38.2872 77.0625C38.2872 77.0625 38.2872 77.0625 38.2872 77.0625C38.2872 77.0625 38.2872 77.0625 38.2872 77.0625C38.2872 77.0625 38.2872 77.0625 38.2872 77.0625C38.2872 77.0625 38.2872 77.0625 38.2872 77.0625C38.2872 77.0625 38.2872 77.0625 38.2872 77.0625C38.2872 77.0625 38.2872 77.0625 38.2872 77.0625C38.2872 77.0625 38.2872 77.0625 38.2872 77.0625C38.2872 77.0625 38.2872 77.0625 38.2872 77.0625C38.2872 77.0625 38.2872 77.0625 38.2872 77.0625C38.2872 77.0625 38.2872 77.0625 38.2872 77.0625C38.2872 77.0625 38.2872 77.0625 38.2872 77.0625C38.2872 77.0625 38.2872 77.0625 38.2872 77.0625C38.2872 77.0625 38.2872 77.0625 38.2872 77.0625C38.2872 77.0625 38.2872 77.0625 38.2872 77.0625C38.2872 77.0625 38.2872 77.0625 38.2872 77.0625C38.2872 77.0625 38.2872 77.0625 38.2872 77.0625C38.2872 77.0625 38.2872 77.0625 38.2872 77.0625C38.2872 77.0625 38.2872 77.0625 38.2872 77.0625C38.2872 77.0625 38.2872 77.0625 38.2872 77.0625C38.2872 77.0625 38.2872 77.0625 38.2872 77.0625C38.2872 77.0625 38.2872 77.0625 38.2872 77.0625C38.2872 77.0625 38.2872 77.0625 38.2872 77.0625C38.2872 77.0625 38.2872 77.0625 38.2872 77.0625C38.2872 77.0625 38.2872 77.0625 38.2872 77.0625C38.2872 77.0625 38.2872 77.0625 38.2872 77.0625C38.2872 77.0625 38.2872 77.0625 38.2872 77.0625C38.2872 77.0625 38.2872 77.0625 38.2872 77.0625C38.2872 77.0625 38.2872 77.0625 38.2872 77.0625C38.2872 77.0625 38.2872 77.0625 38.2872 77.0625C38.2872 77.0625 38.2872 77.0625 38.2872 77.0625C38.2872 77.0625 38.2872 77.0625 38.2872 77.0625C38.2872 77.0625 38.2872 77.0625 38.2872 77.0625C38.2871 77.0625 38.2871 77.0625 38.2871 77.0625C38.2871 77.0625 38.2871 77.0625 38.2871 77.0625C38.2871 77.0625 38.2871 77.0625 38.2871 77.0625C38.2871 77.0625 38.2871 77.0625 38.2871 77.0625C38.2871 77.0625 38.2871 77.0625 38.2871 77.0625C38.2871 77.0625 38.2871 77.0625 38.2871 77.0625C38.2871 77.0625 38.2871 77.0625 38.2871 77.0625C38.2871 77.0625 38.2871 77.0625 38.2871 77.0625C38.2871 77.0625 38.2871 77.0625 38.2871 77.0625C38.2871 77.0625 38.2871 77.0625 38.2871 77.0625C38.2871 77.0625 38.2871 77.0625 38.2871 77.0625C38.2871 77.0625 38.2871 77.0625 38.2871 77.0625C38.2871 77.0625 38.2871 77.0625 38.2871 77.0625C38.2871 77.0625 38.2871 77.0625 38.2871 77.0625C38.2871 77.0625 38.2871 77.0625 38.2871 77.0625C38.2871 77.0625 38.2871 77.0625 38.2871 77.0625C38.2871 77.0625 38.2871 77.0625 38.2871 77.0625C38.2871 77.0625 38.2871 77.0625 38.2871 77.0625C38.2871 77.0625 38.2871 77.0625 38.2871 77.0625C38.2871 77.0625 38.2871 77.0625 38.2871 77.0625C38.2871 77.0625 38.2871 77.0625 38.2871 77.0625C38.2871 77.0625 38.2871 77.0625 38.2871 77.0625C38.2871 77.0625 38.2871 77.0625 38.2871 77.0625C38.2871 77.0625 38.2871 77.0625 38.2871 77.0625C38.2871 77.0625 38.2871 77.0625 38.2871 77.0625C38.2871 77.0625 38.2871 77.0625 38.2871 77.0625C38.2871 77.0625 38.2871 77.0625 38.2871 77.0625C38.2871 77.0625 38.2871 77.0625 38.2871 77.0625C38.2871 77.0625 38.2871 77.0625 38.2871 77.0625C38.2871 77.0625 38.2871 77.0625 38.2871 77.0625C38.2871 77.0625 38.2871 77.0625 38.2871 77.0625C38.2871 77.0625 38.2871 77.0625 38.2871 77.0625C38.2871 77.0625 38.2871 77.0625 38.2871 77.0625C38.2871 77.0625 38.2871 77.0625 38.2871 77.0625C38.2871 77.0625 38.2871 77.0625 38.2871 77.0625C38.2871 77.0625 38.2871 77.0625 38.2871 77.0625C38.2871 77.0625 38.2871 77.0625 38.2871 77.0625C38.2871 77.0625 38.2871 77.0625 38.2871 77.0625C38.2871 77.0625 38.2871 77.0625 38.2871 77.0625C38.2871 77.0625 38.2871 77.0625 38.2871 77.0625C38.2871 77.0625 38.2871 77.0625 38.2871 77.0625C38.2871 77.0625 38.2871 77.0625 38.2871 77.0625C38.2871 77.0625 38.2871 77.0625 38.2871 77.0625C38.2871 77.0625 38.2871 77.0625 38.2871 77.0625C38.2871 77.0625 38.2871 77.0625 38.2871 77.0625C38.2871 77.0625 38.2871 77.0625 38.2871 77.0625C38.2871 77.0625 38.2871 77.0625 38.2871 77.0625C38.2871 77.0625 38.2871 77.0625 38.2871 77.0625C38.2871 77.0625 38.2871 77.0625 38.2871 77.0625C38.2871 77.0625 38.2871 77.0625 38.2871 77.0625C38.2871 77.0625 38.2871 77.0625 38.2871 77.0625C38.2871 77.0625 38.2871 77.0625 38.2871 77.0625C38.2871 77.0625 38.287 77.0625 38.287 77.0625C38.287 77.0625 38.287 77.0625 38.287 77.0625C38.287 77.0625 38.287 77.0625 38.287 77.0625C38.287 77.0625 38.287 77.0625 38.287 77.0625C38.287 77.0625 38.287 77.0625 38.287 77.0625C38.287 77.0625 38.287 77.0625 38.287 77.0625C38.287 77.0625 38.287 77.0625 38.287 77.0625C38.287 77.0625 38.287 77.0625 38.287 77.0625C38.287 77.0625 38.287 77.0625 38.287 77.0625C38.287 77.0625 38.287 77.0625 38.287 77.0625C38.287 77.0625 38.287 77.0625 38.287 77.0625C38.287 77.0625 38.287 77.0625 38.287 77.0625C38.287 77.0625 38.287 77.0625 38.287 77.0625C38.287 77.0625 38.287 77.0625 38.287 77.0625C38.287 77.0625 38.287 77.0625 38.287 77.0625C38.287 77.0625 38.287 77.0625 38.287 77.0625C38.287 77.0625 38.287 77.0625 38.287 77.0625C38.287 77.0625 38.287 77.0625 38.287 77.0625C38.287 77.0625 38.287 77.0625 38.287 77.0625C38.287 77.0625 38.287 77.0625 38.287 77.0625C38.287 77.0625 38.287 77.0625 38.287 77.0625C38.287 77.0625 38.287 77.0625 38.287 77.0625C38.287 77.0625 38.287 77.0625 38.287 77.0625C38.287 77.0625 38.287 77.0625 38.287 77.0625C38.287 77.0625 38.287 77.0625 38.287 77.0625C38.287 77.0625 38.287 77.0625 38.287 77.0625C38.287 77.0625 38.287 77.0625 38.287 77.0625C38.287 77.0625 38.287 77.0625 38.287 77.0625C38.287 77.0625 38.287 77.0625 38.287 77.0625C38.287 77.0625 38.287 77.0625 38.287 77.0625C38.287 77.0625 38.287 77.0625 38.287 77.0625C38.287 77.0625 38.287 77.0625 38.287 77.0625C38.287 77.0625 38.287 77.0625 38.287 77.0625C38.287 77.0625 38.287 77.0625 38.287 77.0625C38.287 77.0625 38.287 77.0625 38.287 77.0625C38.287 77.0625 38.287 77.0625 38.287 77.0625C38.287 77.0625 38.287 77.0625 38.287 77.0625C38.287 77.0625 38.287 77.0625 38.287 77.0625C38.287 77.0625 38.287 77.0625 38.287 77.0625C38.287 77.0625 38.287 77.0625 38.287 77.0625C38.287 77.0625 38.287 77.0625 38.287 77.0625C38.287 77.0625 38.287 77.0625 38.287 77.0625C38.287 77.0625 38.287 77.0625 38.287 77.0625C38.287 77.0625 38.287 77.0625 38.287 77.0625C38.287 77.0625 38.287 77.0625 38.287 77.0625C38.287 77.0625 38.287 77.0625 38.287 77.0625C38.287 77.0625 38.287 77.0625 38.287 77.0625C38.287 77.0625 38.287 77.0625 38.287 77.0625C38.287 77.0625 38.287 77.0625 38.287 77.0625C38.287 77.0625 38.287 77.0625 38.287 77.0625C38.287 77.0625 38.287 77.0625 38.287 77.0625C38.287 77.0625 38.287 77.0625 38.287 77.0625C38.287 77.0625 38.287 77.0625 38.2869 77.0625C38.2869 77.0625 38.2869 77.0625 38.2869 77.0625C38.2869 77.0625 38.2869 77.0625 38.2869 77.0625C38.2869 77.0625 38.2869 77.0625 38.2869 77.0625C38.2869 77.0625 38.2869 77.0625 38.2869 77.0625C38.2869 77.0625 38.2869 77.0625 38.2869 77.0625C38.2869 77.0625 38.2869 77.0625 38.2869 77.0625C38.2869 77.0625 38.2869 77.0625 38.2869 77.0625C38.2869 77.0625 38.2869 77.0625 38.2869 77.0625C38.2869 77.0625 38.2869 77.0625 38.2869 77.0625C38.2869 77.0625 38.2869 77.0625 38.2869 77.0625C38.2869 77.0625 38.2869 77.0625 38.2869 77.0625C38.2869 77.0625 38.2869 77.0625 38.2869 77.0625C38.2869 77.0625 38.2869 77.0625 38.2869 77.0625C38.2869 77.0625 38.2869 77.0625 38.2869 77.0625C38.2869 77.0625 38.2869 77.0625 38.2869 77.0625C38.2869 77.0625 38.2869 77.0625 38.2869 77.0625C38.2869 77.0625 38.2869 77.0625 38.2869 77.0625C38.2869 77.0625 38.2869 77.0625 38.2869 77.0625C38.2869 77.0625 38.2869 77.0625 38.2869 77.0625C38.2869 77.0625 38.2869 77.0625 38.2869 77.0625C38.2869 77.0625 38.2869 77.0625 38.2869 77.0625C38.2869 77.0625 38.2869 77.0625 38.2869 77.0625C38.2869 77.0625 38.2869 77.0625 38.2869 77.0625C38.2869 77.0625 38.2869 77.0625 38.2869 77.0625C38.2869 77.0625 38.2869 77.0625 38.2869 77.0625C38.2869 77.0625 38.2869 77.0625 38.2869 77.0625C38.2869 77.0625 38.2869 77.0625 38.2869 77.0625C38.2869 77.0625 38.2869 77.0625 38.2869 77.0625C38.2869 77.0625 38.2869 77.0625 38.2869 77.0625C38.2869 77.0625 38.2869 77.0625 38.2869 77.0625C38.2869 77.0625 38.2869 77.0625 38.2869 77.0625C38.2869 77.0625 38.2869 77.0625 38.2869 77.0625C38.2869 77.0625 38.2869 77.0625 38.2869 77.0625C38.2869 77.0625 38.2869 77.0625 38.2869 77.0625C38.2869 77.0625 38.2869 77.0625 38.2869 77.0625C38.2869 77.0625 38.2869 77.0625 38.2869 77.0625C38.2869 77.0625 38.2869 77.0625 38.2869 77.0625C38.2869 77.0625 38.2869 77.0625 38.2869 77.0625C38.2869 77.0625 38.2869 77.0625 38.2869 77.0625C38.2869 77.0625 38.2869 77.0625 38.2869 77.0625C38.2869 77.0625 38.2869 77.0625 38.2869 77.0625C38.2869 77.0625 38.2869 77.0625 38.2869 77.0625C38.2869 77.0625 38.2869 77.0625 38.2869 77.0625C38.2869 77.0625 38.2869 77.0625 38.2869 77.0625V79.0625C38.2869 79.0625 38.2869 79.0625 38.2869 79.0625C38.2869 79.0625 38.2869 79.0625 38.2869 79.0625C38.2869 79.0625 38.2869 79.0625 38.2869 79.0625C38.2869 79.0625 38.2869 79.0625 38.2869 79.0625C38.2869 79.0625 38.2869 79.0625 38.2869 79.0625C38.2869 79.0625 38.2869 79.0625 38.2869 79.0625C38.2869 79.0625 38.2869 79.0625 38.2869 79.0625C38.2869 79.0625 38.2869 79.0625 38.2869 79.0625C38.2869 79.0625 38.2869 79.0625 38.2869 79.0625C38.2869 79.0625 38.2869 79.0625 38.2869 79.0625C38.2869 79.0625 38.2869 79.0625 38.2869 79.0625C38.2869 79.0625 38.2869 79.0625 38.2869 79.0625C38.2869 79.0625 38.2869 79.0625 38.2869 79.0625C38.2869 79.0625 38.2869 79.0625 38.2869 79.0625C38.2869 79.0625 38.2869 79.0625 38.2869 79.0625C38.2869 79.0625 38.2869 79.0625 38.2869 79.0625C38.2869 79.0625 38.2869 79.0625 38.2869 79.0625C38.2869 79.0625 38.2869 79.0625 38.2869 79.0625C38.2869 79.0625 38.2869 79.0625 38.2869 79.0625C38.2869 79.0625 38.2869 79.0625 38.2869 79.0625C38.2869 79.0625 38.2869 79.0625 38.2869 79.0625C38.2869 79.0625 38.2869 79.0625 38.2869 79.0625C38.2869 79.0625 38.2869 79.0625 38.2869 79.0625C38.2869 79.0625 38.2869 79.0625 38.2869 79.0625C38.2869 79.0625 38.2869 79.0625 38.2869 79.0625C38.2869 79.0625 38.2869 79.0625 38.2869 79.0625C38.2869 79.0625 38.2869 79.0625 38.2869 79.0625C38.2869 79.0625 38.2869 79.0625 38.2869 79.0625C38.2869 79.0625 38.2869 79.0625 38.2869 79.0625C38.2869 79.0625 38.2869 79.0625 38.2869 79.0625C38.2869 79.0625 38.2869 79.0625 38.2869 79.0625C38.2869 79.0625 38.2869 79.0625 38.2869 79.0625C38.2869 79.0625 38.2869 79.0625 38.2869 79.0625C38.2869 79.0625 38.2869 79.0625 38.2869 79.0625C38.2869 79.0625 38.2869 79.0625 38.2869 79.0625C38.2869 79.0625 38.2869 79.0625 38.2869 79.0625C38.2869 79.0625 38.2869 79.0625 38.2869 79.0625C38.2869 79.0625 38.2869 79.0625 38.2869 79.0625C38.2869 79.0625 38.2869 79.0625 38.2869 79.0625C38.2869 79.0625 38.2869 79.0625 38.2869 79.0625C38.2869 79.0625 38.2869 79.0625 38.2869 79.0625C38.2869 79.0625 38.2869 79.0625 38.2869 79.0625C38.2869 79.0625 38.2869 79.0625 38.2869 79.0625C38.2869 79.0625 38.2869 79.0625 38.2869 79.0625C38.287 79.0625 38.287 79.0625 38.287 79.0625C38.287 79.0625 38.287 79.0625 38.287 79.0625C38.287 79.0625 38.287 79.0625 38.287 79.0625C38.287 79.0625 38.287 79.0625 38.287 79.0625C38.287 79.0625 38.287 79.0625 38.287 79.0625C38.287 79.0625 38.287 79.0625 38.287 79.0625C38.287 79.0625 38.287 79.0625 38.287 79.0625C38.287 79.0625 38.287 79.0625 38.287 79.0625C38.287 79.0625 38.287 79.0625 38.287 79.0625C38.287 79.0625 38.287 79.0625 38.287 79.0625C38.287 79.0625 38.287 79.0625 38.287 79.0625C38.287 79.0625 38.287 79.0625 38.287 79.0625C38.287 79.0625 38.287 79.0625 38.287 79.0625C38.287 79.0625 38.287 79.0625 38.287 79.0625C38.287 79.0625 38.287 79.0625 38.287 79.0625C38.287 79.0625 38.287 79.0625 38.287 79.0625C38.287 79.0625 38.287 79.0625 38.287 79.0625C38.287 79.0625 38.287 79.0625 38.287 79.0625C38.287 79.0625 38.287 79.0625 38.287 79.0625C38.287 79.0625 38.287 79.0625 38.287 79.0625C38.287 79.0625 38.287 79.0625 38.287 79.0625C38.287 79.0625 38.287 79.0625 38.287 79.0625C38.287 79.0625 38.287 79.0625 38.287 79.0625C38.287 79.0625 38.287 79.0625 38.287 79.0625C38.287 79.0625 38.287 79.0625 38.287 79.0625C38.287 79.0625 38.287 79.0625 38.287 79.0625C38.287 79.0625 38.287 79.0625 38.287 79.0625C38.287 79.0625 38.287 79.0625 38.287 79.0625C38.287 79.0625 38.287 79.0625 38.287 79.0625C38.287 79.0625 38.287 79.0625 38.287 79.0625C38.287 79.0625 38.287 79.0625 38.287 79.0625C38.287 79.0625 38.287 79.0625 38.287 79.0625C38.287 79.0625 38.287 79.0625 38.287 79.0625C38.287 79.0625 38.287 79.0625 38.287 79.0625C38.287 79.0625 38.287 79.0625 38.287 79.0625C38.287 79.0625 38.287 79.0625 38.287 79.0625C38.287 79.0625 38.287 79.0625 38.287 79.0625C38.287 79.0625 38.287 79.0625 38.287 79.0625C38.287 79.0625 38.287 79.0625 38.287 79.0625C38.287 79.0625 38.287 79.0625 38.287 79.0625C38.287 79.0625 38.287 79.0625 38.287 79.0625C38.287 79.0625 38.287 79.0625 38.287 79.0625C38.287 79.0625 38.287 79.0625 38.287 79.0625C38.287 79.0625 38.287 79.0625 38.287 79.0625C38.287 79.0625 38.287 79.0625 38.287 79.0625C38.287 79.0625 38.287 79.0625 38.287 79.0625C38.287 79.0625 38.287 79.0625 38.287 79.0625C38.287 79.0625 38.287 79.0625 38.287 79.0625C38.287 79.0625 38.287 79.0625 38.287 79.0625C38.287 79.0625 38.287 79.0625 38.287 79.0625C38.287 79.0625 38.287 79.0625 38.287 79.0625C38.287 79.0625 38.287 79.0625 38.287 79.0625C38.287 79.0625 38.2871 79.0625 38.2871 79.0625C38.2871 79.0625 38.2871 79.0625 38.2871 79.0625C38.2871 79.0625 38.2871 79.0625 38.2871 79.0625C38.2871 79.0625 38.2871 79.0625 38.2871 79.0625C38.2871 79.0625 38.2871 79.0625 38.2871 79.0625C38.2871 79.0625 38.2871 79.0625 38.2871 79.0625C38.2871 79.0625 38.2871 79.0625 38.2871 79.0625C38.2871 79.0625 38.2871 79.0625 38.2871 79.0625C38.2871 79.0625 38.2871 79.0625 38.2871 79.0625C38.2871 79.0625 38.2871 79.0625 38.2871 79.0625C38.2871 79.0625 38.2871 79.0625 38.2871 79.0625C38.2871 79.0625 38.2871 79.0625 38.2871 79.0625C38.2871 79.0625 38.2871 79.0625 38.2871 79.0625C38.2871 79.0625 38.2871 79.0625 38.2871 79.0625C38.2871 79.0625 38.2871 79.0625 38.2871 79.0625C38.2871 79.0625 38.2871 79.0625 38.2871 79.0625C38.2871 79.0625 38.2871 79.0625 38.2871 79.0625C38.2871 79.0625 38.2871 79.0625 38.2871 79.0625C38.2871 79.0625 38.2871 79.0625 38.2871 79.0625C38.2871 79.0625 38.2871 79.0625 38.2871 79.0625C38.2871 79.0625 38.2871 79.0625 38.2871 79.0625C38.2871 79.0625 38.2871 79.0625 38.2871 79.0625C38.2871 79.0625 38.2871 79.0625 38.2871 79.0625C38.2871 79.0625 38.2871 79.0625 38.2871 79.0625C38.2871 79.0625 38.2871 79.0625 38.2871 79.0625C38.2871 79.0625 38.2871 79.0625 38.2871 79.0625C38.2871 79.0625 38.2871 79.0625 38.2871 79.0625C38.2871 79.0625 38.2871 79.0625 38.2871 79.0625C38.2871 79.0625 38.2871 79.0625 38.2871 79.0625C38.2871 79.0625 38.2871 79.0625 38.2871 79.0625C38.2871 79.0625 38.2871 79.0625 38.2871 79.0625C38.2871 79.0625 38.2871 79.0625 38.2871 79.0625C38.2871 79.0625 38.2871 79.0625 38.2871 79.0625C38.2871 79.0625 38.2871 79.0625 38.2871 79.0625C38.2871 79.0625 38.2871 79.0625 38.2871 79.0625C38.2871 79.0625 38.2871 79.0625 38.2871 79.0625C38.2871 79.0625 38.2871 79.0625 38.2871 79.0625C38.2871 79.0625 38.2871 79.0625 38.2871 79.0625C38.2871 79.0625 38.2871 79.0625 38.2871 79.0625C38.2871 79.0625 38.2871 79.0625 38.2871 79.0625C38.2871 79.0625 38.2871 79.0625 38.2871 79.0625C38.2871 79.0625 38.2871 79.0625 38.2871 79.0625C38.2871 79.0625 38.2871 79.0625 38.2871 79.0625C38.2871 79.0625 38.2871 79.0625 38.2871 79.0625C38.2871 79.0625 38.2871 79.0625 38.2871 79.0625C38.2871 79.0625 38.2871 79.0625 38.2871 79.0625C38.2871 79.0625 38.2871 79.0625 38.2871 79.0625C38.2871 79.0625 38.2871 79.0625 38.2871 79.0625C38.2871 79.0625 38.2871 79.0625 38.2871 79.0625C38.2871 79.0625 38.2871 79.0625 38.2871 79.0625C38.2871 79.0625 38.2871 79.0625 38.2871 79.0625C38.2871 79.0625 38.2871 79.0625 38.2871 79.0625C38.2871 79.0625 38.2871 79.0625 38.2872 79.0625C38.2872 79.0625 38.2872 79.0625 38.2872 79.0625C38.2872 79.0625 38.2872 79.0625 38.2872 79.0625C38.2872 79.0625 38.2872 79.0625 38.2872 79.0625C38.2872 79.0625 38.2872 79.0625 38.2872 79.0625C38.2872 79.0625 38.2872 79.0625 38.2872 79.0625C38.2872 79.0625 38.2872 79.0625 38.2872 79.0625C38.2872 79.0625 38.2872 79.0625 38.2872 79.0625C38.2872 79.0625 38.2872 79.0625 38.2872 79.0625C38.2872 79.0625 38.2872 79.0625 38.2872 79.0625C38.2872 79.0625 38.2872 79.0625 38.2872 79.0625C38.2872 79.0625 38.2872 79.0625 38.2872 79.0625C38.2872 79.0625 38.2872 79.0625 38.2872 79.0625C38.2872 79.0625 38.2872 79.0625 38.2872 79.0625C38.2872 79.0625 38.2872 79.0625 38.2872 79.0625C38.2872 79.0625 38.2872 79.0625 38.2872 79.0625C38.2872 79.0625 38.2872 79.0625 38.2872 79.0625C38.2872 79.0625 38.2872 79.0625 38.2872 79.0625C38.2872 79.0625 38.2872 79.0625 38.2872 79.0625C38.2872 79.0625 38.2872 79.0625 38.2872 79.0625C38.2872 79.0625 38.2872 79.0625 38.2872 79.0625C38.2872 79.0625 38.2872 79.0625 38.2872 79.0625C38.2872 79.0625 38.2872 79.0625 38.2872 79.0625C38.2872 79.0625 38.2872 79.0625 38.2872 79.0625C38.2872 79.0625 38.2872 79.0625 38.2872 79.0625C38.2872 79.0625 38.2872 79.0625 38.2872 79.0625C38.2872 79.0625 38.2872 79.0625 38.2872 79.0625C38.2872 79.0625 38.2872 79.0625 38.2872 79.0625C38.2872 79.0625 38.2872 79.0625 38.2872 79.0625C38.2872 79.0625 38.2872 79.0625 38.2872 79.0625C38.2872 79.0625 38.2872 79.0625 38.2872 79.0625C38.2872 79.0625 38.2872 79.0625 38.2872 79.0625C38.2872 79.0625 38.2872 79.0625 38.2872 79.0625C38.2872 79.0625 38.2872 79.0625 38.2872 79.0625C38.2872 79.0625 38.2872 79.0625 38.2872 79.0625C38.2872 79.0625 38.2872 79.0625 38.2872 79.0625C38.2872 79.0625 38.2872 79.0625 38.2872 79.0625C38.2872 79.0625 38.2872 79.0625 38.2872 79.0625C38.2872 79.0625 38.2872 79.0625 38.2872 79.0625C38.2872 79.0625 38.2872 79.0625 38.2872 79.0625C38.2872 79.0625 38.2872 79.0625 38.2872 79.0625C38.2872 79.0625 38.2872 79.0625 38.2872 79.0625C38.2872 79.0625 38.2872 79.0625 38.2872 79.0625C38.2872 79.0625 38.2872 79.0625 38.2872 79.0625C38.2872 79.0625 38.2872 79.0625 38.2872 79.0625C38.2872 79.0625 38.2872 79.0625 38.2872 79.0625C38.2872 79.0625 38.2872 79.0625 38.2872 79.0625C38.2872 79.0625 38.2872 79.0625 38.2872 79.0625C38.2872 79.0625 38.2872 79.0625 38.2872 79.0625C38.2872 79.0625 38.2872 79.0625 38.2872 79.0625C38.2872 79.0625 38.2872 79.0625 38.2872 79.0625C38.2872 79.0625 38.2872 79.0625 38.2872 79.0625C38.2872 79.0625 38.2872 79.0625 38.2873 79.0625C38.2873 79.0625 38.2873 79.0625 38.2873 79.0625C38.2873 79.0625 38.2873 79.0625 38.2873 79.0625C38.2873 79.0625 38.2873 79.0625 38.2873 79.0625C38.2873 79.0625 38.2873 79.0625 38.2873 79.0625C38.2873 79.0625 38.2873 79.0625 38.2873 79.0625C38.2873 79.0625 38.2873 79.0625 38.2873 79.0625C38.2873 79.0625 38.2873 79.0625 38.2873 79.0625C38.2873 79.0625 38.2873 79.0625 38.2873 79.0625C38.2873 79.0625 38.2873 79.0625 38.2873 79.0625C38.2873 79.0625 38.2873 79.0625 38.2873 79.0625C38.2873 79.0625 38.2873 79.0625 38.2873 79.0625C38.2873 79.0625 38.2873 79.0625 38.2873 79.0625C38.2873 79.0625 38.2873 79.0625 38.2873 79.0625C38.2873 79.0625 38.2873 79.0625 38.2873 79.0625C38.2873 79.0625 38.2873 79.0625 38.2873 79.0625C38.2873 79.0625 38.2873 79.0625 38.2873 79.0625C38.2873 79.0625 38.2873 79.0625 38.2873 79.0625C38.2873 79.0625 38.2873 79.0625 38.2873 79.0625C38.2873 79.0625 38.2873 79.0625 38.2873 79.0625C38.2873 79.0625 38.2873 79.0625 38.2873 79.0625C38.2873 79.0625 38.2873 79.0625 38.2873 79.0625C38.2873 79.0625 38.2873 79.0625 38.2873 79.0625C38.2873 79.0625 38.2873 79.0625 38.2873 79.0625C38.2873 79.0625 38.2873 79.0625 38.2873 79.0625C38.2873 79.0625 38.2873 79.0625 38.2873 79.0625C38.2873 79.0625 38.2873 79.0625 38.2873 79.0625C38.2873 79.0625 38.2873 79.0625 38.2873 79.0625C38.2873 79.0625 38.2873 79.0625 38.2873 79.0625C38.2873 79.0625 38.2873 79.0625 38.2873 79.0625C38.2873 79.0625 38.2873 79.0625 38.2873 79.0625C38.2873 79.0625 38.2873 79.0625 38.2873 79.0625C38.2873 79.0625 38.2873 79.0625 38.2873 79.0625C38.2873 79.0625 38.2873 79.0625 38.2873 79.0625C38.2873 79.0625 38.2873 79.0625 38.2873 79.0625C38.2873 79.0625 38.2873 79.0625 38.2873 79.0625C38.2873 79.0625 38.2873 79.0625 38.2873 79.0625C38.2873 79.0625 38.2873 79.0625 38.2873 79.0625C38.2873 79.0625 38.2873 79.0625 38.2873 79.0625C38.2873 79.0625 38.2873 79.0625 38.2873 79.0625C38.2873 79.0625 38.2873 79.0625 38.2873 79.0625C38.2873 79.0625 38.2873 79.0625 38.2873 79.0625C38.2873 79.0625 38.2873 79.0625 38.2873 79.0625C38.2873 79.0625 38.2873 79.0625 38.2873 79.0625C38.2873 79.0625 38.2873 79.0625 38.2873 79.0625C38.2873 79.0625 38.2873 79.0625 38.2873 79.0625C38.2873 79.0625 38.2873 79.0625 38.2873 79.0625C38.2873 79.0625 38.2873 79.0625 38.2873 79.0625C38.2873 79.0625 38.2873 79.0625 38.2873 79.0625C38.2873 79.0625 38.2873 79.0625 38.2873 79.0625C38.2873 79.0625 38.2873 79.0625 38.2873 79.0625C38.2873 79.0625 38.2873 79.0625 38.2873 79.0625C38.2873 79.0625 38.2873 79.0625 38.2873 79.0625C38.2874 79.0625 38.2874 79.0625 38.2874 79.0625C38.2874 79.0625 38.2874 79.0625 38.2874 79.0625C38.2874 79.0625 38.2874 79.0625 38.2874 79.0625C38.2874 79.0625 38.2874 79.0625 38.2874 79.0625C38.2874 79.0625 38.2874 79.0625 38.2874 79.0625C38.2874 79.0625 38.2874 79.0625 38.2874 79.0625C38.2874 79.0625 38.2874 79.0625 38.2874 79.0625C38.2874 79.0625 38.2874 79.0625 38.2874 79.0625C38.2874 79.0625 38.2874 79.0625 38.2874 79.0625C38.2874 79.0625 38.2874 79.0625 38.2874 79.0625C38.2874 79.0625 38.2874 79.0625 38.2874 79.0625C38.2874 79.0625 38.2874 79.0625 38.2874 79.0625C38.2874 79.0625 38.2874 79.0625 38.2874 79.0625C38.2874 79.0625 38.2874 79.0625 38.2874 79.0625C38.2874 79.0625 38.2874 79.0625 38.2874 79.0625C38.2874 79.0625 38.2874 79.0625 38.2874 79.0625C38.2874 79.0625 38.2874 79.0625 38.2874 79.0625C38.2874 79.0625 38.2874 79.0625 38.2874 79.0625C38.2874 79.0625 38.2874 79.0625 38.2874 79.0625C38.2874 79.0625 38.2874 79.0625 38.2874 79.0625C38.2874 79.0625 38.2874 79.0625 38.2874 79.0625C38.2874 79.0625 38.2874 79.0625 38.2874 79.0625C38.2874 79.0625 38.2874 79.0625 38.2874 79.0625C38.2874 79.0625 38.2874 79.0625 38.2874 79.0625C38.2874 79.0625 38.2874 79.0625 38.2874 79.0625C38.2874 79.0625 38.2874 79.0625 38.2874 79.0625C38.2874 79.0625 38.2874 79.0625 38.2874 79.0625C38.2874 79.0625 38.2874 79.0625 38.2874 79.0625C38.2874 79.0625 38.2874 79.0625 38.2874 79.0625C38.2874 79.0625 38.2874 79.0625 38.2874 79.0625C38.2874 79.0625 38.2874 79.0625 38.2874 79.0625C38.2874 79.0625 38.2874 79.0625 38.2874 79.0625C38.2874 79.0625 38.2874 79.0625 38.2874 79.0625C38.2874 79.0625 38.2874 79.0625 38.2874 79.0625C38.2874 79.0625 38.2874 79.0625 38.2874 79.0625C38.2874 79.0625 38.2874 79.0625 38.2874 79.0625C38.2874 79.0625 38.2874 79.0625 38.2874 79.0625C38.2874 79.0625 38.2874 79.0625 38.2874 79.0625C38.2874 79.0625 38.2874 79.0625 38.2874 79.0625C38.2874 79.0625 38.2874 79.0625 38.2874 79.0625C38.2874 79.0625 38.2874 79.0625 38.2874 79.0625C38.2874 79.0625 38.2874 79.0625 38.2874 79.0625C38.2874 79.0625 38.2874 79.0625 38.2874 79.0625C38.2874 79.0625 38.2874 79.0625 38.2874 79.0625C38.2874 79.0625 38.2874 79.0625 38.2874 79.0625C38.2874 79.0625 38.2874 79.0625 38.2874 79.0625C38.2874 79.0625 38.2874 79.0625 38.2874 79.0625C38.2874 79.0625 38.2874 79.0625 38.2874 79.0625C38.2874 79.0625 38.2874 79.0625 38.2874 79.0625C38.2874 79.0625 38.2874 79.0625 38.2874 79.0625C38.2874 79.0625 38.2874 79.0625 38.2874 79.0625C38.2874 79.0625 38.2874 79.0625 38.2874 79.0625C38.2874 79.0625 38.2875 79.0625 38.2875 79.0625C38.2875 79.0625 38.2875 79.0625 38.2875 79.0625C38.2875 79.0625 38.2875 79.0625 38.2875 79.0625C38.2875 79.0625 38.2875 79.0625 38.2875 79.0625C38.2875 79.0625 38.2875 79.0625 38.2875 79.0625C38.2875 79.0625 38.2875 79.0625 38.2875 79.0625C38.2875 79.0625 38.2875 79.0625 38.2875 79.0625C38.2875 79.0625 38.2875 79.0625 38.2875 79.0625C38.2875 79.0625 38.2875 79.0625 38.2875 79.0625C38.2875 79.0625 38.2875 79.0625 38.2875 79.0625C38.2875 79.0625 38.2875 79.0625 38.2875 79.0625C38.2875 79.0625 38.2875 79.0625 38.2875 79.0625C38.2875 79.0625 38.2875 79.0625 38.2875 79.0625C38.2875 79.0625 38.2875 79.0625 38.2875 79.0625C38.2875 79.0625 38.2875 79.0625 38.2875 79.0625C38.2875 79.0625 38.2875 79.0625 38.2875 79.0625C38.2875 79.0625 38.2875 79.0625 38.2875 79.0625C38.2875 79.0625 38.2875 79.0625 38.2875 79.0625C38.2875 79.0625 38.2875 79.0625 38.2875 79.0625C38.2875 79.0625 38.2875 79.0625 38.2875 79.0625C38.2875 79.0625 38.2875 79.0625 38.2875 79.0625C38.2875 79.0625 38.2875 79.0625 38.2875 79.0625C38.2875 79.0625 38.2875 79.0625 38.2875 79.0625C38.2875 79.0625 38.2875 79.0625 38.2875 79.0625C38.2875 79.0625 38.2875 79.0625 38.2875 79.0625C38.2875 79.0625 38.2875 79.0625 38.2875 79.0625C38.2875 79.0625 38.2875 79.0625 38.2875 79.0625C38.2875 79.0625 38.2875 79.0625 38.2875 79.0625C38.2875 79.0625 38.2875 79.0625 38.2875 79.0625C38.2875 79.0625 38.2875 79.0625 38.2875 79.0625C38.2875 79.0625 38.2875 79.0625 38.2875 79.0625C38.2875 79.0625 38.2875 79.0625 38.2875 79.0625C38.2875 79.0625 38.2875 79.0625 38.2875 79.0625C38.2875 79.0625 38.2875 79.0625 38.2875 79.0625C38.2875 79.0625 38.2875 79.0625 38.2875 79.0625C38.2875 79.0625 38.2875 79.0625 38.2875 79.0625C38.2875 79.0625 38.2875 79.0625 38.2875 79.0625C38.2875 79.0625 38.2875 79.0625 38.2875 79.0625C38.2875 79.0625 38.2875 79.0625 38.2875 79.0625C38.2875 79.0625 38.2875 79.0625 38.2875 79.0625C38.2875 79.0625 38.2875 79.0625 38.2875 79.0625C38.2875 79.0625 38.2875 79.0625 38.2875 79.0625C38.2875 79.0625 38.2875 79.0625 38.2875 79.0625C38.2875 79.0625 38.2875 79.0625 38.2875 79.0625C38.2875 79.0625 38.2875 79.0625 38.2875 79.0625C38.2875 79.0625 38.2875 79.0625 38.2875 79.0625C38.2875 79.0625 38.2875 79.0625 38.2875 79.0625C38.2875 79.0625 38.2875 79.0625 38.2875 79.0625C38.2875 79.0625 38.2875 79.0625 38.2875 79.0625C38.2875 79.0625 38.2875 79.0625 38.2875 79.0625C38.2875 79.0625 38.2875 79.0625 38.2875 79.0625C38.2875 79.0625 38.2875 79.0625 38.2875 79.0625C38.2875 79.0625 38.2876 79.0625 38.2876 79.0625C38.2876 79.0625 38.2876 79.0625 38.2876 79.0625C38.2876 79.0625 38.2876 79.0625 38.2876 79.0625C38.2876 79.0625 38.2876 79.0625 38.2876 79.0625C38.2876 79.0625 38.2876 79.0625 38.2876 79.0625C38.2876 79.0625 38.2876 79.0625 38.2876 79.0625C38.2876 79.0625 38.2876 79.0625 38.2876 79.0625C38.2876 79.0625 38.2876 79.0625 38.2876 79.0625C38.2876 79.0625 38.2876 79.0625 38.2876 79.0625C38.2876 79.0625 38.2876 79.0625 38.2876 79.0625C38.2876 79.0625 38.2876 79.0625 38.2876 79.0625C38.2876 79.0625 38.2876 79.0625 38.2876 79.0625C38.2876 79.0625 38.2876 79.0625 38.2876 79.0625C38.2876 79.0625 38.2876 79.0625 38.2876 79.0625C38.2876 79.0625 38.2876 79.0625 38.2876 79.0625C38.2876 79.0625 38.2876 79.0625 38.2876 79.0625C38.2876 79.0625 38.2876 79.0625 38.2876 79.0625C38.2876 79.0625 38.2876 79.0625 38.2876 79.0625C38.2876 79.0625 38.2876 79.0625 38.2876 79.0625C38.2876 79.0625 38.2876 79.0625 38.2876 79.0625C38.2876 79.0625 38.2876 79.0625 38.2876 79.0625C38.2876 79.0625 38.2876 79.0625 38.2876 79.0625C38.2876 79.0625 38.2876 79.0625 38.2876 79.0625C38.2876 79.0625 38.2876 79.0625 38.2876 79.0625C38.2876 79.0625 38.2876 79.0625 38.2876 79.0625C38.2876 79.0625 38.2876 79.0625 38.2876 79.0625C38.2876 79.0625 38.2876 79.0625 38.2876 79.0625C38.2876 79.0625 38.2876 79.0625 38.2876 79.0625C38.2876 79.0625 38.2876 79.0625 38.2876 79.0625C38.2876 79.0625 38.2876 79.0625 38.2876 79.0625C38.2876 79.0625 38.2876 79.0625 38.2876 79.0625C38.2876 79.0625 38.2876 79.0625 38.2876 79.0625C38.2876 79.0625 38.2876 79.0625 38.2876 79.0625C38.2876 79.0625 38.2876 79.0625 38.2876 79.0625C38.2876 79.0625 38.2876 79.0625 38.2876 79.0625C38.2876 79.0625 38.2876 79.0625 38.2876 79.0625C38.2876 79.0625 38.2876 79.0625 38.2876 79.0625C38.2876 79.0625 38.2876 79.0625 38.2876 79.0625C38.2876 79.0625 38.2876 79.0625 38.2876 79.0625C38.2876 79.0625 38.2876 79.0625 38.2876 79.0625C38.2876 79.0625 38.2876 79.0625 38.2876 79.0625C38.2876 79.0625 38.2876 79.0625 38.2876 79.0625C38.2876 79.0625 38.2876 79.0625 38.2876 79.0625C38.2876 79.0625 38.2876 79.0625 38.2876 79.0625C38.2876 79.0625 38.2876 79.0625 38.2876 79.0625C38.2876 79.0625 38.2876 79.0625 38.2876 79.0625C38.2876 79.0625 38.2876 79.0625 38.2876 79.0625C38.2876 79.0625 38.2876 79.0625 38.2876 79.0625C38.2876 79.0625 38.2876 79.0625 38.2876 79.0625C38.2876 79.0625 38.2876 79.0625 38.2876 79.0625C38.2876 79.0625 38.2876 79.0625 38.2876 79.0625C38.2876 79.0625 38.2876 79.0625 38.2876 79.0625C38.2876 79.0625 38.2876 79.0625 38.2877 79.0625C38.2877 79.0625 38.2877 79.0625 38.2877 79.0625C38.2877 79.0625 38.2877 79.0625 38.2877 79.0625C38.2877 79.0625 38.2877 79.0625 38.2877 79.0625C38.2877 79.0625 38.2877 79.0625 38.2877 79.0625C38.2877 79.0625 38.2877 79.0625 38.2877 79.0625C38.2877 79.0625 38.2877 79.0625 38.2877 79.0625C38.2877 79.0625 38.2877 79.0625 38.2877 79.0625C38.2877 79.0625 38.2877 79.0625 38.2877 79.0625C38.2877 79.0625 38.2877 79.0625 38.2877 79.0625C38.2877 79.0625 38.2877 79.0625 38.2877 79.0625C38.2877 79.0625 38.2877 79.0625 38.2877 79.0625C38.2877 79.0625 38.2877 79.0625 38.2877 79.0625C38.2877 79.0625 38.2877 79.0625 38.2877 79.0625C38.2877 79.0625 38.2877 79.0625 38.2877 79.0625C38.2877 79.0625 38.2877 79.0625 38.2877 79.0625C38.2877 79.0625 38.2877 79.0625 38.2877 79.0625C38.2877 79.0625 38.2877 79.0625 38.2877 79.0625C38.2877 79.0625 38.2877 79.0625 38.2877 79.0625C38.2877 79.0625 38.2877 79.0625 38.2877 79.0625C38.2877 79.0625 38.2877 79.0625 38.2877 79.0625C38.2877 79.0625 38.2877 79.0625 38.2877 79.0625C38.2877 79.0625 38.2877 79.0625 38.2877 79.0625C38.2877 79.0625 38.2877 79.0625 38.2877 79.0625C38.2877 79.0625 38.2877 79.0625 38.2877 79.0625C38.2877 79.0625 38.2877 79.0625 38.2877 79.0625C38.2877 79.0625 38.2877 79.0625 38.2877 79.0625C38.2877 79.0625 38.2877 79.0625 38.2877 79.0625C38.2877 79.0625 38.2877 79.0625 38.2877 79.0625C38.2877 79.0625 38.2877 79.0625 38.2877 79.0625C38.2877 79.0625 38.2877 79.0625 38.2877 79.0625C38.2877 79.0625 38.2877 79.0625 38.2877 79.0625C38.2877 79.0625 38.2877 79.0625 38.2877 79.0625C38.2877 79.0625 38.2877 79.0625 38.2877 79.0625C38.2877 79.0625 38.2877 79.0625 38.2877 79.0625C38.2877 79.0625 38.2877 79.0625 38.2877 79.0625C38.2877 79.0625 38.2877 79.0625 38.2877 79.0625C38.2877 79.0625 38.2877 79.0625 38.2877 79.0625C38.2877 79.0625 38.2877 79.0625 38.2877 79.0625C38.2877 79.0625 38.2877 79.0625 38.2877 79.0625C38.2877 79.0625 38.2877 79.0625 38.2877 79.0625C38.2877 79.0625 38.2877 79.0625 38.2877 79.0625C38.2877 79.0625 38.2877 79.0625 38.2877 79.0625C38.2877 79.0625 38.2877 79.0625 38.2877 79.0625C38.2877 79.0625 38.2877 79.0625 38.2877 79.0625C38.2877 79.0625 38.2877 79.0625 38.2877 79.0625C38.2877 79.0625 38.2877 79.0625 38.2877 79.0625C38.2877 79.0625 38.2877 79.0625 38.2877 79.0625C38.2877 79.0625 38.2877 79.0625 38.2877 79.0625C38.2877 79.0625 38.2877 79.0625 38.2877 79.0625C38.2877 79.0625 38.2877 79.0625 38.2877 79.0625C38.2877 79.0625 38.2877 79.0625 38.2877 79.0625C38.2877 79.0625 38.2877 79.0625 38.2877 79.0625C38.2878 79.0625 38.2878 79.0625 38.2878 79.0625C38.2878 79.0625 38.2878 79.0625 38.2878 79.0625C38.2878 79.0625 38.2878 79.0625 38.2878 79.0625C38.2878 79.0625 38.2878 79.0625 38.2878 79.0625C38.2878 79.0625 38.2878 79.0625 38.2878 79.0625C38.2878 79.0625 38.2878 79.0625 38.2878 79.0625C38.2878 79.0625 38.2878 79.0625 38.2878 79.0625C38.2878 79.0625 38.2878 79.0625 38.2878 79.0625C38.2878 79.0625 38.2878 79.0625 38.2878 79.0625C38.2878 79.0625 38.2878 79.0625 38.2878 79.0625C38.2878 79.0625 38.2878 79.0625 38.2878 79.0625C38.2878 79.0625 38.2878 79.0625 38.2878 79.0625C38.2878 79.0625 38.2878 79.0625 38.2878 79.0625C38.2878 79.0625 38.2878 79.0625 38.2878 79.0625C38.2878 79.0625 38.2878 79.0625 38.2878 79.0625C38.2878 79.0625 38.2878 79.0625 38.2878 79.0625C38.2878 79.0625 38.2878 79.0625 38.2878 79.0625C38.2878 79.0625 38.2878 79.0625 38.2878 79.0625C38.2878 79.0625 38.2878 79.0625 38.2878 79.0625C38.2878 79.0625 38.2878 79.0625 38.2878 79.0625C38.2878 79.0625 38.2878 79.0625 38.2878 79.0625C38.2878 79.0625 38.2878 79.0625 38.2878 79.0625C38.2878 79.0625 38.2878 79.0625 38.2878 79.0625C38.2878 79.0625 38.2878 79.0625 38.2878 79.0625C38.2878 79.0625 38.2878 79.0625 38.2878 79.0625C38.2878 79.0625 38.2878 79.0625 38.2878 79.0625C38.2878 79.0625 38.2878 79.0625 38.2878 79.0625C38.2878 79.0625 38.2878 79.0625 38.2878 79.0625C38.2878 79.0625 38.2878 79.0625 38.2878 79.0625C38.2878 79.0625 38.2878 79.0625 38.2878 79.0625C38.2878 79.0625 38.2878 79.0625 38.2878 79.0625C38.2878 79.0625 38.2878 79.0625 38.2878 79.0625C38.2878 79.0625 38.2878 79.0625 38.2878 79.0625C38.2878 79.0625 38.2878 79.0625 38.2878 79.0625C38.2878 79.0625 38.2878 79.0625 38.2878 79.0625C38.2878 79.0625 38.2878 79.0625 38.2878 79.0625C38.2878 79.0625 38.2878 79.0625 38.2878 79.0625C38.2878 79.0625 38.2878 79.0625 38.2878 79.0625C38.2878 79.0625 38.2878 79.0625 38.2878 79.0625C38.2878 79.0625 38.2878 79.0625 38.2878 79.0625C38.2878 79.0625 38.2878 79.0625 38.2878 79.0625C38.2878 79.0625 38.2878 79.0625 38.2878 79.0625C38.2878 79.0625 38.2878 79.0625 38.2878 79.0625C38.2878 79.0625 38.2878 79.0625 38.2878 79.0625C38.2878 79.0625 38.2878 79.0625 38.2878 79.0625C38.2878 79.0625 38.2878 79.0625 38.2878 79.0625C38.2878 79.0625 38.2878 79.0625 38.2878 79.0625C38.2878 79.0625 38.2878 79.0625 38.2878 79.0625C38.2878 79.0625 38.2878 79.0625 38.2878 79.0625C38.2878 79.0625 38.2878 79.0625 38.2878 79.0625V77.0625ZM76.0001 39.3502C76.0001 60.1782 59.1158 77.0625 38.2878 77.0625V79.0625C60.2203 79.0625 78.0001 61.2827 78.0001 39.3502H76.0001ZM38.2878 1.63794C59.1158 1.63794 76.0001 18.5223 76.0001 39.3502H78.0001C78.0001 17.4177 60.2203 -0.362061 38.2878 -0.362061V1.63794ZM38.2869 1.63794C38.2872 1.63794 38.2875 1.63794 38.2878 1.63794V-0.362061C38.2875 -0.362061 38.2872 -0.362061 38.2868 -0.362061L38.2869 1.63794ZM37.2869 0.637939V78.0625H39.2869V0.637939H37.2869Z" fill="#DF991B" mask="url(#path-1-inside-1_2_1043)"/>
<circle cx="38.1593" cy="39.3502" r="38.1593" fill="white"/>
<circle cx="38.9918" cy="38.1385" r="22.2222" fill="black"/>
<circle cx="38.9912" cy="38.1376" r="23.5" stroke="black"/>
<path d="M46.152 47.0981H47.4119C49.1116 47.0981 50.4515 46.6286 51.4314 45.6896C52.4112 44.7506 53.3911 43.1176 54.371 40.7701C54.511 40.4639 54.631 40.321 54.7909 40.321C54.8309 40.321 54.8709 40.321 54.9109 40.321C54.9509 40.321 54.9709 40.321 54.9909 40.321L53.4711 47.9146C52.6112 47.6493 50.9114 47.5064 48.3717 47.5064H37.2131V47.3431C37.2131 47.2002 37.3531 47.1185 37.6531 47.0369C37.953 46.9756 38.293 46.894 38.653 46.8327C39.0329 46.7511 39.3529 46.5061 39.6528 46.0979C39.9528 45.6896 40.0928 45.1181 40.0928 44.3628V31.0332C40.0928 30.4208 39.9528 29.9513 39.6528 29.6247C39.3529 29.2981 39.0329 29.0939 38.673 29.0327C38.313 28.9715 37.993 28.8898 37.6931 28.8286C37.3931 28.7469 37.2531 28.6449 37.2531 28.5224V28.3591H46.632V28.5224C46.632 28.6653 46.472 28.7673 46.172 28.8286C45.8721 28.9102 45.5321 28.9715 45.1721 29.0327C44.8122 29.0939 44.4722 29.2981 44.1723 29.6451C43.8723 29.9921 43.7123 30.4616 43.7123 31.0536C43.7123 32.3192 43.7123 34.6054 43.7123 37.9123C43.7123 41.2192 43.7123 43.485 43.7123 44.771C43.7123 45.5263 43.9123 46.1183 44.2923 46.5061C44.6722 46.9144 45.3121 47.0981 46.172 47.0981H46.152Z" fill="white"/>
<path fill-rule="evenodd" clip-rule="evenodd" d="M33.6579 46.8828C32.2273 46.7078 31.1985 46.2058 30.5813 45.367C29.7982 44.3028 29.3966 42.7568 29.3966 40.7087V32.3358C29.3966 31.5528 29.5171 30.8902 29.738 30.3079C29.8383 29.9264 30.0391 29.6051 30.3202 29.3843C30.6013 29.1634 30.9025 29.0228 31.2037 28.9827C31.5049 28.9425 31.7659 28.8823 32.0069 28.822C32.2277 28.7417 32.3482 28.6614 32.3482 28.5209V28.3602H22.9915V28.5209C22.9915 28.6413 23.1521 28.7417 23.4332 28.822C23.5043 28.8373 23.5793 28.8538 23.6572 28.871C23.8871 28.9216 24.142 28.9778 24.397 29.0228C24.7383 29.0831 25.0797 29.2839 25.3608 29.6051C25.6619 29.9264 25.8025 30.3882 25.8025 30.9906V40.5079C25.8025 45.0947 28.4273 47.4426 33.6579 47.5328V46.8828Z" fill="white"/>
</svg>
